<?xml version="1.0" encoding="utf-8"?>
<!-- Generator: Adobe Illustrator 19.0.0, SVG Export Plug-In . SVG Version: 6.00 Build 0)  -->
<svg version="1.1" id="Capa_1" xmlns="http://www.w3.org/2000/svg" xmlns:xlink="http://www.w3.org/1999/xlink" x="0px" y="0px"
	 viewBox="-32.6 238.6 36 36" style="enable-background:new -32.6 238.6 36 36;" xml:space="preserve">
<style type="text/css">
	.st0{fill:#F15633;}
</style>
<path class="st0" d="M-14.6,238.6c-9.9,0-18,8.1-18,18s8.1,18,18,18s18-8.1,18-18S-4.7,238.6-14.6,238.6z M-9.6,257.3l-8.5,8.5
	c-0.4,0.4-1,0.4-1.4,0c-0.4-0.4-0.4-1,0-1.4l7.9-7.9l-7.9-7.9c-0.4-0.4-0.4-1,0-1.4c0.4-0.4,1-0.4,1.4,0l8.5,8.5
	C-9.3,256.3-9.3,256.9-9.6,257.3z"/>
</svg>
