<?xml version="1.0" encoding="utf-8"?>
<!-- Generator: Adobe Illustrator 19.0.0, SVG Export Plug-In . SVG Version: 6.00 Build 0)  -->
<svg version="1.1" id="Layer_1" xmlns="http://www.w3.org/2000/svg" xmlns:xlink="http://www.w3.org/1999/xlink" x="0px" y="0px"
	 viewBox="0 0 36 36" style="enable-background:new 0 0 36 36;" xml:space="preserve">
<style type="text/css">
	.st0{fill:#F15833;}
</style>
<path id="XMLID_12_" class="st0" d="M18,0C8.1,0,0,8.1,0,18s8.1,18,18,18s18-8.1,18-18S27.9,0,18,0z M23,25.9c0.4,0.4,0.4,1,0,1.4
	c-0.4,0.4-1,0.4-1.4,0L13,18.7c-0.4-0.4-0.4-1,0-1.4l8.5-8.5c0.4-0.4,1-0.4,1.4,0c0.4,0.4,0.4,1,0,1.4L15.1,18L23,25.9z"/>
</svg>
