<?xml version="1.0" encoding="utf-8"?>
<!-- Generator: Adobe Illustrator 19.0.0, SVG Export Plug-In . SVG Version: 6.00 Build 0)  -->
<svg version="1.1" id="Layer_1" xmlns="http://www.w3.org/2000/svg" xmlns:xlink="http://www.w3.org/1999/xlink" x="0px" y="0px"
	 viewBox="252 302.9 48 44.3" style="enable-background:new 252 302.9 48 44.3;" xml:space="preserve">
<style type="text/css">
	.st0{fill:#994D00;}
	.st1{fill:#FFD9B3;}
</style>
<g>
	<g>
		<g>
			<path class="st0" d="M295.9,304.5c-3.7-2.5-8.9-2.1-12.1,1.4c-5-1.9-10.5-1.9-15.5,0c-4.1-4.5-11.3-3.9-14.6,1.1
				c-2.7,4-1.9,9.5,1.9,12.6c-1.5,4.7-1.2,9.9,0.8,14.6c3.3,7.7,10.9,13.1,19.7,13.1c11.8,0,21.4-9.6,21.4-21.4
				c0-2.2-0.3-4.3-0.9-6.3C301.5,315.6,301.1,308,295.9,304.5z M256.8,316.5c-2.6-2.8-2-7.3,1.1-9.4c2.2-1.5,5.1-1.5,7.3,0.3
				C261.7,309.4,258.7,312.6,256.8,316.5z M266.6,322.2c0-0.9,0.7-1.6,1.6-1.6s1.6,0.7,1.6,1.6s-0.7,1.6-1.6,1.6
				S266.6,323,266.6,322.2z M277.6,339.8v-1.9c0.9-0.5,1.6-1.6,1.6-2.7c0-1.7-1.4-3.1-3.1-3.1c-1.7,0-3.1,1.4-3.1,3.1
				c0,1.2,0.6,2.2,1.6,2.7v1.9c-3.4-0.6-6.3-3-6.3-6.1c0-3.5,3.5-6.3,7.8-6.3c4.3,0,7.8,2.8,7.8,6.3
				C283.8,336.8,281,339.2,277.6,339.8z M283.8,323.7c-0.9,0-1.6-0.7-1.6-1.6s0.7-1.6,1.6-1.6s1.6,0.7,1.6,1.6
				S284.7,323.7,283.8,323.7z M286.8,307.4c1.8-1.5,4.3-1.7,6.3-0.9c4,1.7,5.1,6.8,2.2,10C293.4,312.7,290.4,309.5,286.8,307.4z"/>
			<g>
				<circle class="st1" cx="283.8" cy="322.2" r="1.6"/>
			</g>
			<g>
				<circle class="st1" cx="268.2" cy="322.2" r="1.6"/>
			</g>
			<g>
				<path class="st1" d="M283.8,333.7c0,3.1-2.9,5.6-6.3,6.1v-1.9c0.9-0.5,1.6-1.6,1.6-2.7c0-1.7-1.4-3.1-3.1-3.1
					c-1.7,0-3.1,1.4-3.1,3.1c0,1.2,0.6,2.2,1.6,2.7v1.9c-3.4-0.6-6.3-3-6.3-6.1c0-3.5,3.5-6.3,7.8-6.3
					C280.3,327.4,283.8,330.2,283.8,333.7z"/>
			</g>
			<g>
				<path class="st1" d="M295.2,316.5c-1.9-3.8-4.8-7-8.5-9.1c1.8-1.5,4.3-1.7,6.3-0.9C297,308.2,298.2,313.3,295.2,316.5z"/>
			</g>
			<g>
				<path class="st1" d="M265.2,307.4c-3.6,2.1-6.6,5.2-8.5,9.1c-2.6-2.8-2-7.3,1.1-9.4C260.1,305.6,263,305.6,265.2,307.4z"/>
			</g>
		</g>
	</g>
</g>
</svg>
