<?xml version="1.0" encoding="utf-8"?>
<!-- Generator: Adobe Illustrator 19.0.0, SVG Export Plug-In . SVG Version: 6.00 Build 0)  -->
<svg version="1.1" id="OBJECTS" xmlns="http://www.w3.org/2000/svg" xmlns:xlink="http://www.w3.org/1999/xlink" x="0px" y="0px"
	 viewBox="-207 180.3 426.9 236" style="enable-background:new -207 180.3 426.9 236;" xml:space="preserve">
<style type="text/css">
	.st0{opacity:0.3;fill:#FFFFFF;enable-background:new    ;}
	.st1{fill:#FFFFFF;}
	.st2{fill:url(#SVGID_1_);}
	.st3{fill:url(#SVGID_2_);}
	.st4{fill:url(#SVGID_3_);}
	.st5{fill:url(#SVGID_4_);}
	.st6{fill:url(#SVGID_5_);}
	.st7{fill:url(#SVGID_6_);}
	.st8{fill:url(#SVGID_7_);}
	.st9{fill:url(#SVGID_8_);}
	.st10{fill:none;stroke:#FFFFFF;stroke-width:2;stroke-linecap:round;stroke-linejoin:round;stroke-miterlimit:10;}
</style>
<path class="st0" d="M218,344.4c-2.8-2.2-4.2-7.9-6.9-10.3c0.1-0.6,0.3-1.1,0.4-1.7c3-1.3,1.6-6.1,1.8-9.9c0.2-3.6-2.1-1-2.2-3.4
	c0.4-1.4,2-0.5,2-2.9l0,0c2.1-2.5,0.8-5.9-0.4-9.2c-0.5-4-1.1-8-1.6-11.9c-2.4-10.9-4.7-21.8-7.1-32.7c-0.4-2-0.8-4.3-1.9-5.9l0,0
	c-0.4-1.9-0.8-3.8-1.9-5.2c-0.7-1.6-1.3-3.3-2-4.9c1-1.2,0.8-3.3,0.5-5.2c-0.3-2.9-1.3-5.9-1.3-8.6c0.1-11.5-5.3-18-9.5-25.6l0,0
	c-0.1-0.3-0.2-0.5-0.4-0.7c-3.5,0.6-6.9-2-10.4-4.1c-0.8-2.5-2.3-3.2-3-2.3c-2.3,3.1-5.2-0.4-7.8-0.3c-1.3,0.1-2.6-0.2-3.7,0.8
	c-3.3-1.8-6.6-4.3-10-5.2c-0.3-2.4-1.2-3.5-2.5-3.5c-3.2,0-6.5-0.7-9.6,0.2c-1.9-0.1-3.7-0.3-5.6-0.4c-1.4-1.7-2.8,0-4.2-1.5
	c-2.1-1.7-3.7,0.1-5.3,1c0-1.1,0.7-2.4-0.3-3.2c-1.6-1.2-1.6,1.3-2,2.9l-0.2-0.1l-0.1,0.2c-0.5-0.9-0.6-3.4-1.3-2.8
	c-2.4,2.1-5.5-2.1-7.8-0.3c-0.4,0.1-0.8,0.3-1.1,0.4c-0.9-0.8-1.8-1.9-2.8-1.2c-1-0.9-1.5,0.5-2.2,0.7c-3.7-2.3-7.1-2.3-10.5-1.4
	c-3.7-3.9-6.5-1.4-9.5,0.1c0-1.4-0.1-2.6-1.2-2.4c-4,0.7-8.5-1.4-12.4,0.3c-2.4-2-4,0.5-5.8,1.2c-1.7-1.9-3.6-3.8-5.3-2.5
	c-2.2,1.8-4.6,0.5-7,0c-3.9-0.8-7.8-0.4-11.7-0.5c-0.1,0.2,0,0.5,0,0.7c-0.1-0.1-0.2-0.2-0.3-0.2c0.1-0.2,0.1-0.4,0.2-0.5
	c-1.9-1.6-3.5-0.2-5.2,0c-2.6-0.6-5-0.4-7.3,0.8l0,0c-1.4,0.1-2.8,0.1-4.3,0.2l0,0c-3.6-2.2-7.3-4.7-10.4-1
	c-1.3,0.9-3.4-3.9-4.2,0.3c0,0.2-0.1,0.3-0.1,0.5l0,0l0,0l0.1-0.4c-2.5-3.1-4-1.1-5.4,1.2c-5.5-0.4-11.1-0.9-16.6-1.4
	c-0.3-0.2-0.5-0.2-0.7,0.1l0,0c-3.4,0.7-7.2-1.1-10.4,1.1c-0.9,0-1.7,0-2.6,0c-0.4,0.1-0.7,0.1-1.1,0.2c-0.7-1-1.3-0.5-1.9-0.1
	c-4.8-0.1-9.3,2.3-14.3,1.2c-1.9-2-3.5-0.3-4.9,0.4c-3.8,1.6-8-1.2-11.7,0.5c-2.5,1.2-5.2,1.4-7.8,2.1c-5.8,2.9-12.2,2.4-18.2,4.2
	c-5.1,1.6-10.2,3.7-14.8,7.3c-1,0.4-2.1,0.9-3.1,1.3c-2.9,1.3-6.3,1.1-8.7,4.3c-1.5-0.8-2.8-0.7-4,0.7c-0.7,0.9-1.9,1.9-2.7,1.4
	c-3.2-2.2-5.4,0.9-7.9,1.7c-6.4,2.1-12.6,5.4-18.8,8.5c-8.3,4.1-16.9,6.7-25.2,11c-6.5,3.3-13.2,6.6-19.7,10c-0.9,0.5-2,0.3-2.6,1.8
	c-1.7-2.3-2.5,0.4-3.8,0.5c-3.8,1.3-7.3,5.3-11.3,8c-0.3,0.3-0.9,0.3-1,0.8c-1.5,5.3,0.3,19,3,24.7c0.7,1.4,1.3,1.3,2,1.2
	c0.6-0.1,1.4-0.5,1.7,0c2.3,4.1,4.3,3.1,6.3,1.4c2.2,1.7,2.3-0.6,2.1-3.7c0.6,3.6,4.3,1.5,3.7,7c-0.4,0.2-0.7,0.4-1.1,0.5
	c-2.2,0.4-2.7,3.3-0.8,5.5c2.8,3.1-0.2,2.8,0,4.2c-0.4,1.4,0.7,2.1,0.8,3.2c-2.3-1.8-4.7-3.5-7-5.3c-3.8,1-3.8,1-1.8,5.4
	c0.2,0.7,0.4,1.4,0.5,2.1c-0.4,0.6-0.2,1.5,0,2.3c1.4,5.3,3.4,7.2,5.3,4.7c0.6-0.8,1.1-1.3,1.8-0.7c1.7,1.3,2.1-0.8,2.8-2.3
	c0.3,0.3,0.5,0.6,0.8,0.8c1.6,1.6,1.9,0,2-2c0.6-0.3,1.4-0.3,1.5-1.8c1-4,3.4,0.7,4.8-0.6c1.7,1.2,2.9-0.6,4.3-0.9
	c1.9-0.5,3.4,0.3,4.1,4.5c-1.3-0.3-3.6-1.7-3.3-0.1c1.2,5.4-0.9,1.4-1.5,1.7c-0.9,0.5-2.6-0.6-2.3,2.7c0.1,0.9-0.2,1.7-0.7,1.8
	c-4.6,0.6-8.1,4.6-11.5,8.7c-1.5,0.5-3.3,1-2.5,4.5c0.8,3.4,2.3,6.8,4.9,6.4c1.4,3.5,1,5.4-1.1,6.2c-0.8,0.3-2.6-0.1-1.7,2.5
	c0.6,1.8,2.2,3.7,3.5,2.2c0.5-0.5,0.9-1.2,1.3-1.8c0.1,1-0.3,2,0.5,2.8c0.6,0.6,0.8-0.2,1.2-0.7l0,0c3.4,0.9,6.9,1.6,8.6-3.6
	c0.9-2.7,1.4-3.3,3-0.9c0.6,0.8,1.2,0.4,1.7,0c2.7-2.1,6.5-0.7,8.5-5.2c0.4-0.8,1.1,0.3,1.7,1c2.4-0.8,4.5,0.8,6.4,4.1
	c0,0.1,0.2,0,0.3,0c0.2,0,0.4,0,0.5,0.1c1.7-0.1,3.2-1,4.3-2.9l0,0c0.9,0.5,1.7,0.7,2.4-0.1c0.7-0.6,1.4-1.3,2.1-1.9
	c0.4,3,0.4,3.3-1.8,4c-5.2,1.8-9.4,6.5-14.5,8.6c-1.2,1.8-1.8,4.4-4.3,2.7c-1.7-1.2-2.2,2.8-2.7,4.7c-0.3,1.2,1.6,3.2,3,3.6
	c0.6,0.2,1.4-1.1,1.8,1.4c-2.4,0.8-5.3-0.3-7.1,3c0.1,0.2,0.3,0.3,0.4,0.5c-0.1,0-0.1,0-0.2,0.1c-0.1-0.2-0.1-0.4-0.2-0.6
	c-0.3,0.6-0.6,1.2-1,1.7c-1.8,2.1-4.1,2.2-6.1,3.6c-1.3,1-2.1,2.7-1.8,5.5c0.3,2.9,1.5,4.4,3.2,5c1.5,0.6,3,1.6,4.5,2.3
	c3.5-1.4,7-2.9,10.8-4.5c-0.2,4.6-7.2,2-1.8,10.2c0,0,0.1,0,0.1,0.1l0,0l0.1,0.1c-0.1,2.9-0.2,5.7-0.3,8.6c-0.4,0-0.8,0.1-1.2,0.1
	c-0.3-1.4-0.6-2.8-0.8-4.3s-0.8-2.2-1.3-1.4c-1,1.7-3.2,1.1-3.4,4.4c-0.8,1.3-4.4-3.7-2.8,2.4c1,3.8,1.1,7.4,1.8,11.1
	c-0.3,0.4-0.5,1-1,0.4c-0.6-0.8-0.7-3.4-1.8-2c-0.6,0.8-0.5,2.4,0,3.9c0.3,1,0.6,2,1,3c-0.4,2.7,0.2,3.8,1.8,3.1
	c0.6-0.3,1.4-0.5,1.5,0.9c0.3,6.5,2.9,4.7,4.8,5.6c1.6-1.6,3.8,2.1,5,0.9c2.9-2.9,6.7-1.5,9.6-3.7c2.9-2.2,6.8-0.7,9.2-4.6
	c0.3-0.1,0.7-0.2,1-0.3c6.7,0.2,12.7-2.9,19.1-4.5c2.2,0.7,4-0.8,6-1.4c0.4-0.1,0.8-0.3,1.2-0.4c1.8,0.6,3.6,2.3,5.4,2.7
	c7,1.5,13.2-1.5,19.7-2.6c5.1,3.6,9.4-1,14.3,0.7c2.3,0.8,3.7-3.9,6-2.3c3,1.9,5.3,0.8,7.7-0.4c1.2-0.6,2.4-1.7,3.8-0.6
	c4.3,3.3,7.7-1.2,12,0.1c3.9,1.2,8.2,0.6,12.3,0.5s8.4,0.6,12.2-1.4c2.5-1.3,5-1.8,7.7-0.6c4.8,2.2,8.8-0.2,13.3-0.2
	c2.6,1.4,4.3-1.3,6.5-1.6c1.9,2,3.5,1.3,5.1,0.3c1.9-1.1,3.9-1.6,6.2,0c3.1,1,5.9-0.5,9.2,0.3c3.5,0.9,7.7,3.3,10.6-1.2
	c0.1-0.2,0.6,0,0.8,0.3c2.5,4.1,4.5,1.5,6.6,0.8c2.7-1.3,5.7-2.4,8.5-0.7c3.2,2,5.6,0.9,8.1-0.4c2.3,0.8,4.3,4.3,6.9,3.6
	c3.6-0.9,7.4-1,11.2-0.8c4.5,0.3,8.8-1.5,13.6,2.4c0.7,0.6,0.9-0.8,1.3-1.4c0.5,0.2,0.9,0.4,1.4,0.6c0.3,1.6,1,2.5,1.9,2.8
	c1.7,1.3,2.8-0.6,4.3-0.5c0.3,0.2,0.5,0.5,0.8,0.8c1.2,1.3,2.1,0,3.1-0.2c1.3,1.1,2.4,1,3.6,0.8c4.6-0.6,9.3-1.8,13.9,0.7
	c5.2,2.9,10.1,1.6,15.3,4.3c4.7,2.5,8.7-2.2,12.6-4.3c4.8-2.6,9.9-3.1,14.8-4.7c4.7-1.5,9.5-2.3,13-7.7c0.6-0.9,1.2-1.5,2.1-1.2
	c5.3,1.8,8.9-3.1,13-6.2c0-0.4-0.2-0.7-0.4-0.9c0,0,0.1,0,0.1-0.1c0.1,0.4,0.2,0.7,0.3,1c4.1-1.5,7.8-4.1,11.5-6.9l0,0l0,0
	c0.2-0.1,0.3-0.2,0.4-0.4c1.1-0.4,1.5-2.2,2.3-3.3c0.5-2,0.2-3.8-1.1-4.9c-1-0.8-2-0.9-3-1.6c-2.4-1.7-3.3-5.8-2.1-8.2l0.1-0.3l0,0
	c0,0.1-0.1,0.2-0.1,0.3c0.1,0.4,0.2,0.7,0.3,1c0.3,2.2,0.4,5.3,2.3,4.9c1.4-0.3,1.1-3.6,0.5-5.2c-1.3-4.1,0.6-5.2,1.4-4.1
	c2.3,2.7,3.9,0.6,5.5,1.1c4.4,1.3,4.1-3.1,4.4-7.6C219.7,346.7,219.3,345.4,218,344.4z"/>
<g>
	<g>
		
			<image style="overflow:visible;opacity:0.9;enable-background:new    ;" width="383" height="232" xlink:href="AFB52E41.png"  transform="matrix(1 0 0 1 -170.5904 182.0377)">
		</image>
		<g>
			<polygon class="st1" points="-64.9,362.3 -86.3,330.4 -86.3,362.3 -129.8,362.3 -129.8,227.7 -86.3,227.7 -86.3,250.5 
				-67.8,227.7 -11.4,227.7 -62.9,288.1 -12.6,362.3 			"/>
			<path class="st1" d="M-44.6,362.3V260c-1.1-2.7-1.7-5.8-1.7-9c0-13.2,10.3-23.5,23.5-23.5c13,0,23.3,10.2,23.4,23.3
				c0.1,3.1-0.5,6.2-1.6,9v102.5H-44.6z"/>
			<path class="st1" d="M33.4,364c-13.3,0-25.5-5.6-34.2-15.7c-8.3-9.7-12.9-22.9-12.9-37.4c-0.1-16.5,5.4-31.3,15.6-41.6
				c8.8-8.9,20.6-13.8,33-13.8c2.7,0,5.4,0.2,8,0.6v-34h43.7v105.8c0,7.6,0.2,14.1,0.6,18l1.5,16.4H46C42,363.4,37.8,364,33.4,364z
				 M37.6,296.2c-7.3,0-7.5,12.6-7.5,14c0,3.8,0.7,12.8,7.2,12.8c2.7,0,4.7-1.8,5.4-4.8v-0.1c0.1-0.3,0.2-0.9,0.2-2.3v-13
				c0-0.8-0.1-1.6-0.1-1.9v-0.2l-0.1-0.3C42.5,299.7,41.5,296.2,37.6,296.2z"/>
			<polygon class="st1" points="70.7,362.3 70.7,334.3 98.4,298.2 73.8,298.2 73.8,257.2 161.4,257.2 160.8,285.9 133.5,321.4 
				161.7,321.4 161.7,362.3 			"/>
		</g>
	</g>
	<g>
		
			<image style="overflow:visible;opacity:0.45;enable-background:new    ;" width="309" height="158" xlink:href="AFB52E43.png"  transform="matrix(1 0 0 1 -131.5904 221.0377)">
		</image>
		<g>
			<polygon class="st1" points="-61.2,355.3 -92.2,309.1 -93.3,310.4 -93.3,355.3 -122.8,355.3 -122.8,234.7 -93.3,234.7 
				-93.3,270.1 -64.4,234.7 -26.5,234.7 -71.7,287.6 -25.8,355.3 			"/>
			<path class="st1" d="M-37.6,355.3v-91.1h4.7c-3.9-3-6.4-7.7-6.4-13.1c0-9.3,7.3-16.5,16.5-16.5c9.3,0,16.3,7,16.4,16.4
				c0.1,4.4-1.5,8.5-4.4,11.5c-0.6,0.6-1.2,1.2-1.9,1.7h4.8v91.1H-37.6z"/>
			<path class="st1" d="M33.4,357c-23.3,0-40.1-19.4-40.1-46.2c-0.1-14.7,4.7-27.7,13.6-36.6c7.5-7.6,17.5-11.7,28.1-11.7
				c5.4,0,10.5,1,15,2.9v-36.3h29.7v98.8c0,7.9,0.2,14.5,0.6,18.7l0.8,8.7H52.5l-0.1-3C46.7,355.3,40.2,357,33.4,357z M37.6,289.2
				c-10.7,0-14.5,11.3-14.5,21c0,4.6,1,19.8,14.2,19.8c5.9,0,10.7-4,12.2-10.2c0.3-1.1,0.4-2.3,0.4-4v-13c0-1.6-0.2-3-0.3-3.6
				l-0.1-0.3C48.4,294,44.3,289.2,37.6,289.2z"/>
			<polygon class="st1" points="77.7,355.3 77.7,336.7 112.6,291.2 80.8,291.2 80.8,264.2 154.2,264.2 153.9,283.5 119.3,328.4 
				154.7,328.4 154.7,355.3 			"/>
		</g>
	</g>
	<g>
		<path d="M-114.8,242.7h13.5v50.4h0.5c2.8-4,5.6-7.8,8.2-11.2l32-39.3h16.8L-81.7,287l40.8,60.2h-16l-34.5-51.4l-9.9,11.5v40h-13.5
			V242.7z"/>
		<path d="M-14.4,251.1c0.2,4.7-3.3,8.4-8.7,8.4c-4.8,0-8.2-3.7-8.2-8.4c0-4.8,3.6-8.5,8.5-8.5C-17.7,242.5-14.4,246.3-14.4,251.1z
			 M-29.6,347.3v-75.1h13.7v75.1H-29.6z"/>
		<path d="M71.6,237.1v90.8c0,6.7,0.2,14.3,0.6,19.4H59.9l-0.6-13H59c-4.2,8.4-13.3,14.7-25.6,14.7c-18.2,0-32.1-15.4-32.1-38.2
			c-0.2-25,15.4-40.4,33.7-40.4c11.5,0,19.2,5.4,22.7,11.5H58v-44.8H71.6z M57.9,302.8c0-1.7-0.2-4-0.6-5.7
			c-2-8.7-9.5-15.8-19.7-15.8c-14.1,0-22.5,12.4-22.5,29c0,15.2,7.5,27.8,22.2,27.8c9.2,0,17.5-6.1,20-16.3c0.5-1.9,0.6-3.7,0.6-5.9
			V302.8z"/>
		<path d="M85.7,339.4l34-44.2c3.3-4,6.4-7.6,9.8-11.6v-0.3H88.8v-11h57.3l-0.2,8.5l-33.5,43.5c-3.1,4.2-6.2,7.9-9.6,11.8v0.3h43.9
			v10.9h-61L85.7,339.4L85.7,339.4z"/>
	</g>
	<g>
		
			<linearGradient id="SVGID_1_" gradientUnits="userSpaceOnUse" x1="-76.1" y1="354.8586" x2="-76.1" y2="267.7985" gradientTransform="matrix(1 0 0 -1 0 597.84)">
			<stop  offset="4.298940e-003" style="stop-color:#8F2408"/>
			<stop  offset="0.5021" style="stop-color:#B41104"/>
			<stop  offset="1" style="stop-color:#D40000"/>
		</linearGradient>
		<path class="st2" d="M-59,351.3l-32.7-48.8l-5.5,6.4v42.4h-21.6V238.7h21.5v42.8c0.5-0.6,1.6-2,1.6-2l33.2-40.8h27.3l-41.5,48.7
			l43.3,63.9H-59z"/>
		
			<linearGradient id="SVGID_2_" gradientUnits="userSpaceOnUse" x1="-22.8471" y1="354.8586" x2="-22.8471" y2="267.7985" gradientTransform="matrix(1 0 0 -1 0 597.84)">
			<stop  offset="4.298940e-003" style="stop-color:#8F2408"/>
			<stop  offset="0.5021" style="stop-color:#B41104"/>
			<stop  offset="1" style="stop-color:#D40000"/>
		</linearGradient>
		<path class="st3" d="M-33.6,351.3v-83.1h21.7v83.1H-33.6z M-23.1,263.5c-6.9,0-12.2-5.4-12.2-12.4c0-7.1,5.4-12.5,12.5-12.5
			c7.2,0,12.3,5.2,12.4,12.5c0.1,3.3-1.1,6.4-3.3,8.7C-16,262.1-19.4,263.5-23.1,263.5z"/>
		
			<linearGradient id="SVGID_3_" gradientUnits="userSpaceOnUse" x1="36.9491" y1="354.8586" x2="36.9491" y2="267.7985" gradientTransform="matrix(1 0 0 -1 0 597.84)">
			<stop  offset="4.298940e-003" style="stop-color:#8F2408"/>
			<stop  offset="0.5021" style="stop-color:#B41104"/>
			<stop  offset="1" style="stop-color:#D40000"/>
		</linearGradient>
		<path class="st4" d="M33.4,353c-20.9,0-36.1-17.7-36.1-42.2c-0.1-13.6,4.3-25.7,12.4-33.8c6.8-6.8,15.7-10.5,25.2-10.5
			c7.3,0,13.9,2,19,5.6v-39h21.7v94.8c0,4.6,0.1,13.3,0.6,19l0.4,4.4H56.1l-0.3-6.5C50,350,42.1,353,33.4,353z M37.6,285.2
			c-13.7,0-18.5,13.5-18.5,25S23.9,334,37.3,334c7.7,0,14.2-5.3,16.1-13.2c0.4-1.4,0.5-2.9,0.5-5v-13c0-1.8-0.2-3.6-0.5-4.7V298
			C51.9,291.6,46.5,285.2,37.6,285.2z"/>
		
			<linearGradient id="SVGID_4_" gradientUnits="userSpaceOnUse" x1="116.15" y1="354.8586" x2="116.15" y2="267.7985" gradientTransform="matrix(1 0 0 -1 0 597.84)">
			<stop  offset="4.298940e-003" style="stop-color:#8F2408"/>
			<stop  offset="0.5021" style="stop-color:#B41104"/>
			<stop  offset="1" style="stop-color:#D40000"/>
		</linearGradient>
		<path class="st5" d="M81.7,351.3V338l34.8-45.3c1.6-1.9,3.1-3.7,4.6-5.5H84.8v-19h65.3l-0.3,13.9l-34.3,44.7
			c-1.4,1.9-2.8,3.7-4.4,5.7h39.5v18.8H81.7z"/>
	</g>
	<g>
		
			<linearGradient id="SVGID_5_" gradientUnits="userSpaceOnUse" x1="-77.85" y1="354.8586" x2="-77.85" y2="267.7985" gradientTransform="matrix(1 0 0 -1 0 597.84)">
			<stop  offset="0" style="stop-color:#BF00FF"/>
			<stop  offset="0.15" style="stop-color:#C612DE"/>
			<stop  offset="0.4812" style="stop-color:#D8418A"/>
			<stop  offset="0.967" style="stop-color:#F48C06"/>
			<stop  offset="0.9892" style="stop-color:#F58F00"/>
		</linearGradient>
		<path class="st6" d="M-114.8,242.7h13.5v50.4h0.5c2.8-4,5.6-7.8,8.2-11.2l32-39.3h16.8L-81.7,287l40.8,60.2h-16l-34.5-51.4
			l-9.9,11.5v40h-13.5V242.7z"/>
		
			<linearGradient id="SVGID_6_" gradientUnits="userSpaceOnUse" x1="-22.8459" y1="354.8586" x2="-22.8459" y2="267.7985" gradientTransform="matrix(1 0 0 -1 0 597.84)">
			<stop  offset="0" style="stop-color:#BF00FF"/>
			<stop  offset="0.15" style="stop-color:#C612DE"/>
			<stop  offset="0.4812" style="stop-color:#D8418A"/>
			<stop  offset="0.967" style="stop-color:#F48C06"/>
			<stop  offset="0.9892" style="stop-color:#F58F00"/>
		</linearGradient>
		<path class="st7" d="M-14.4,251.1c0.2,4.7-3.3,8.4-8.7,8.4c-4.8,0-8.2-3.7-8.2-8.4c0-4.8,3.6-8.5,8.5-8.5
			C-17.7,242.5-14.4,246.3-14.4,251.1z M-29.6,347.3v-75.1h13.7v75.1H-29.6z"/>
		
			<linearGradient id="SVGID_7_" gradientUnits="userSpaceOnUse" x1="36.7491" y1="354.8586" x2="36.7491" y2="267.7985" gradientTransform="matrix(1 0 0 -1 0 597.84)">
			<stop  offset="0" style="stop-color:#BF00FF"/>
			<stop  offset="0.15" style="stop-color:#C612DE"/>
			<stop  offset="0.4812" style="stop-color:#D8418A"/>
			<stop  offset="0.967" style="stop-color:#F48C06"/>
			<stop  offset="0.9892" style="stop-color:#F58F00"/>
		</linearGradient>
		<path class="st8" d="M71.6,237.1v90.8c0,6.7,0.2,14.3,0.6,19.4H59.9l-0.6-13H59c-4.2,8.4-13.3,14.7-25.6,14.7
			c-18.2,0-32.1-15.4-32.1-38.2c-0.2-25,15.4-40.4,33.7-40.4c11.5,0,19.2,5.4,22.7,11.5H58v-44.8H71.6z M57.9,302.8
			c0-1.7-0.2-4-0.6-5.7c-2-8.7-9.5-15.8-19.7-15.8c-14.1,0-22.5,12.4-22.5,29c0,15.2,7.5,27.8,22.2,27.8c9.2,0,17.5-6.1,20-16.3
			c0.5-1.9,0.6-3.7,0.6-5.9V302.8z"/>
		
			<linearGradient id="SVGID_8_" gradientUnits="userSpaceOnUse" x1="116.2" y1="354.8586" x2="116.2" y2="267.7985" gradientTransform="matrix(1 0 0 -1 0 597.84)">
			<stop  offset="0" style="stop-color:#BF00FF"/>
			<stop  offset="0.15" style="stop-color:#C612DE"/>
			<stop  offset="0.4812" style="stop-color:#D8418A"/>
			<stop  offset="0.967" style="stop-color:#F48C06"/>
			<stop  offset="0.9892" style="stop-color:#F58F00"/>
		</linearGradient>
		<path class="st9" d="M85.7,339.4l34-44.2c3.3-4,6.4-7.6,9.8-11.6v-0.3H88.8v-11h57.3l-0.2,8.5l-33.5,43.5
			c-3.1,4.2-6.2,7.9-9.6,11.8v0.3h43.9v10.9h-61L85.7,339.4L85.7,339.4z"/>
	</g>
	<g>
		
			<image style="overflow:visible;opacity:0.85;enable-background:new    ;" width="279" height="128" xlink:href="AFB52E46.png"  transform="matrix(1 0 0 1 -117.5904 232.0377)">
		</image>
		<g>
			<path class="st10" d="M-54.8,343.3l-35.3-52.7l-12.1,14v38.7h-9.5V242.7h9.5v50.4h3.5l0.6-0.9c2.4-3.4,5-7,8.2-11.1l31.3-38.5
				h11.5l-36,42.2l39.6,58.4h-11.3V343.3z"/>
			<path class="st10" d="M-26.6,343.3v-71.1h9.7v71.1H-26.6z M-22.1,255.5c-3.6,0-6.2-2.7-6.2-6.4c0-3.8,2.7-6.5,6.5-6.5
				s6.4,2.6,6.4,6.5c0.1,1.8-0.5,3.3-1.6,4.5C-18.2,254.8-20,255.5-22.1,255.5z"/>
			<path class="st10" d="M34.4,345c-17.5,0-30.1-15.2-30.1-36.2C4.2,296.7,8,286.2,15,279.2c5.6-5.7,13.1-8.8,21-8.8
				c11.1,0,18.1,5.4,20.9,10.5l0.6,1H61v-44.8h9.7v88.8c0,4.2,0.1,11.6,0.5,17.4H63l-0.6-13h-3.5l-0.6,1.1
				C54,339.9,45.1,345,34.4,345z M38.6,277.2c-14.7,0-24.5,12.5-24.5,31c0,18.1,9.5,29.8,24.2,29.8c10.6,0,19.4-7.2,22-17.8
				c0.5-1.9,0.7-3.8,0.7-6.4v-13c0-1.1-0.1-4-0.7-6.3C57.8,284.2,49.1,277.2,38.6,277.2z"/>
			<path class="st10" d="M88.7,343.3v-5.2l33.6-43.7c2.4-2.9,4.6-5.6,7.1-8.4c0.9-1,3.1-3.7,3.1-3.7v-3H91.8v-7H145l-0.1,5.8
				l-33.1,43.1c-2.8,3.7-5.7,7.3-9.5,11.7l-0.5,0.6v3.1h43.9v6.9h-57V343.3z"/>
		</g>
	</g>
</g>
</svg>
